<?xml version="1.0" encoding="utf-8"?>
<!-- Generator: Adobe Illustrator 22.1.0, SVG Export Plug-In . SVG Version: 6.00 Build 0)  -->
<svg version="1.1" id="Layer_1" xmlns="http://www.w3.org/2000/svg" xmlns:xlink="http://www.w3.org/1999/xlink" x="0px" y="0px"
	 viewBox="0 0 89.5 27.69" style="enable-background:new 0 0 89.5 27.69;" xml:space="preserve">
<style type="text/css">
	.st0{fill:none;}
	.st1{fill:#62B3E4;}
	.st2{clip-path:url(#SVGID_2_);fill:#4E3B36;}
	.st3{clip-path:url(#SVGID_4_);fill:#4E3B36;}
	.st4{clip-path:url(#SVGID_6_);fill:#71B7E6;}
	.st5{clip-path:url(#SVGID_8_);fill:#4E3B36;}
	.st6{clip-path:url(#SVGID_10_);fill:#4E3B36;}
	.st7{clip-path:url(#SVGID_12_);fill:#4E3B36;}
	.st8{clip-path:url(#SVGID_14_);fill:#4E3B36;}
</style>
<rect class="st0" width="89.5" height="27.69"/>
<path class="st1" d="M39.92,6.84c0.75-0.96,1.93-1.52,3.37-1.52c2.08,0,3.71,1.45,3.71,3.55c0,2.05-1.95,3.58-3.82,4.71
	c1.29,2.03,2.53,4.16,4.21,5.87l0.92-1.16c0.47-0.6,1.58-1.97,1.58-2.77c0-1.16-0.82-1.34-1.76-1.34h-0.9v-1.37h3.81
	c-0.16-2.58-1-4.92-2.57-7.05c-0.79-1.08-1.17-2.3-1.16-3.64c0-0.1,0.05-0.22,0.1-0.31c0.11-0.21,0.1-0.41,0-0.62
	c-0.03-0.06-0.07-0.11-0.11-0.16C47.7,0.7,47.54,0.19,47.12,0h-2.56h0h-2.56c-0.42,0.19-0.57,0.7-0.19,1.04
	c-0.04,0.05-0.08,0.1-0.11,0.16c-0.1,0.2-0.12,0.41,0,0.62c0.05,0.09,0.11,0.2,0.11,0.31c0.01,1.34-0.37,2.57-1.16,3.64
	C40.37,6.12,40.14,6.48,39.92,6.84"/>
<rect class="st0" width="89.5" height="27.69"/>
<path class="st1" d="M42.13,22.15c1.08,0,2.45-0.45,3.34-1.05c-1.79-1.98-3.26-4.21-4.61-6.5c-1.37,0.73-2.64,1.63-2.82,3.22
	c0,0.28,0,0.56,0,0.84C38.24,20.85,39.87,22.15,42.13,22.15"/>
<rect class="st0" width="89.5" height="27.69"/>
<path class="st1" d="M48.37,20.46c0.67,0.96,1.4,1.66,2.69,1.68c0-0.05,0-0.11,0-0.16c0-2.55-0.01-3.64-0.01-5.25L48.37,20.46z"/>
<rect class="st0" width="89.5" height="27.69"/>
<path class="st1" d="M40.21,13.06c-0.71-1.03-1.16-2.29-1.16-3.53c0-0.58,0.1-1.11,0.27-1.59c-0.88,1.83-1.31,3.8-1.29,5.92
	c0,0.17,0,0.32,0,0.48C38.74,13.89,39.5,13.49,40.21,13.06"/>
<rect class="st0" width="89.5" height="27.69"/>
<path class="st1" d="M50.43,23.83c-1.42,0-2.74-0.63-3.79-1.55c-1.42,1.13-3.32,1.55-5.11,1.55c-1.28,0-2.47-0.25-3.44-0.76
	c0.08,1,0.27,1.99,0.56,2.97c0.1,0.33,0.27,0.56,0.5,0.71c0.75,0.55,2.89,0.94,5.42,0.94c2.73,0,5.02-0.46,5.57-1.08
	c0.14-0.14,0.26-0.33,0.33-0.58c0.22-0.74,0.38-1.48,0.48-2.23C50.78,23.82,50.61,23.83,50.43,23.83"/>
<rect class="st0" width="89.5" height="27.69"/>
<path class="st1" d="M45.06,8.74c0-1.08-0.71-2-1.79-2c-1.32,0-1.97,1.18-1.97,2.53c0,0.89,0.61,2.11,1.11,2.84
	C43.69,11.32,45.06,10.4,45.06,8.74"/>
<g>
	<defs>
		<rect id="SVGID_1_" width="89.5" height="27.69"/>
	</defs>
	<clipPath id="SVGID_2_">
		<use xlink:href="#SVGID_1_"  style="overflow:visible;"/>
	</clipPath>
	<path class="st2" d="M19.1,12.32c0.19,0.07,0.4-0.12,0.59-0.05l0.04,0.06l0.06,0.02c0.1-0.13,0.2-0.15,0.42-0.15c0,0,0.01,0,0.01,0
		c0.01-0.05,0.02-0.1,0.03-0.16c0-0.25,0.4-1.03,0.4-1.46c0-0.56-0.59-0.52-1.17-0.52c-0.28,0-0.4,0.15-0.4,0.37
		c0,0.24-0.19,0.65-0.5,1.44C18.8,11.89,18.95,12.26,19.1,12.32"/>
</g>
<g>
	<defs>
		<rect id="SVGID_3_" width="89.5" height="27.69"/>
	</defs>
	<clipPath id="SVGID_4_">
		<use xlink:href="#SVGID_3_"  style="overflow:visible;"/>
	</clipPath>
	<path class="st3" d="M22.75,18.85c-0.03,0-0.15-0.06-0.18-0.06c0.03-0.06,0.15-0.06,0.22-0.06h0.06
		C22.81,18.79,22.84,18.85,22.75,18.85 M22.84,20.71c0,0.06,0,0.09-0.03,0.12l0.03,0.09l-0.12,0.46c-0.09-0.09-0.06-0.22-0.15-0.22
		l-0.06,0.06c0.03,0.06,0.06,0.16,0.06,0.25l-0.06,0.03c-0.06,0-0.06-0.25-0.06-0.46v-0.28c0.03-0.09,0.09-0.68,0.22-0.68
		c0,0.28,0.19,0.34,0.19,0.4s-0.12,0.09-0.12,0.22C22.72,20.71,22.84,20.71,22.84,20.71z M22.57,22.53l0.09-0.03v0.25
		c0,0.06,0,0.15,0.06,0.22c0,0.03,0,0.13-0.09,0.13c-0.25,0-0.34-0.62-0.34-0.77v-0.15c0-0.16,0-0.43,0.16-0.43
		c0,0.03,0.06,0.06,0.09,0.06l0.19-0.25c0.09,0.03,0.09,0.06,0.09,0.12c-0.06,0.06-0.34,0.65-0.34,0.71
		C22.47,22.44,22.5,22.5,22.57,22.53 M22.16,20.21c0-0.09,0.03-0.18,0.12-0.28c0.06,0,0.06,0.09,0.06,0.09
		c0,0.12-0.06,0.25-0.16,0.31L22.16,20.21z M18.48,22.08l-0.03-0.06c0.25-0.34,0.5-0.74,0.8-1.05c0.15-0.15,0.44-0.51,0.8-0.95
		C19.5,20.88,18.95,22.08,18.48,22.08 M23.4,16.91v0.03l-0.03,0.12h0.03c-0.09,0.12-0.16,0.22-0.25,0.28l-0.03-0.06
		C23.15,17.15,23.24,16.97,23.4,16.91 M23.46,14.81c0.06,0.06,0.03,0.15,0.09,0.25c-0.06,0.06-0.12,0.22-0.18,0.31l-0.09-0.03
		C23.37,15.18,23.4,14.96,23.46,14.81 M23.74,15.67c0.06,0.03,0.06,0.15,0.06,0.25c0,0.09,0,0.12-0.09,0.15l-0.15-0.06
		C23.65,15.92,23.65,15.7,23.74,15.67 M23.95,12.98c0,0.12,0,0.15,0.12,0.25c-0.09,0.12-0.15,0.25-0.25,0.37l-0.03-0.06
		C23.89,13.38,23.89,13.17,23.95,12.98 M24.33,11.78v0.12c0,0.09,0,0.25,0.09,0.25l-0.12,0.06c-0.06-0.03-0.09-0.09-0.09-0.12
		C24.2,12.02,24.23,11.78,24.33,11.78 M25.5,7.26c0,0.22-0.34,0.9-0.5,1.11C25.1,8.16,25.28,7.33,25.5,7.26 M32.73,20.52
		c-0.31,0-0.77-0.31-1.11-0.56c-0.59-0.43-1.45-0.62-2.13-0.87l-0.09,0.06c-0.09-0.06-0.25-0.12-0.34-0.12l0.09-0.06l-0.74-0.37
		c0-0.16,1.85-1.42,2.38-2.01c0.25-0.25,0.99-0.9,1.33-0.99l0.11-0.06c1.42-0.96,3.66-2.81,3.66-4.97l-0.18-0.46l-0.13,0
		c-0.15-0.15-0.38-0.04-0.48-0.26l-0.08-0.02c-0.19-0.09-0.46-0.28-0.65-0.28v0.15c0,0.15,0.09,0.28,0.09,0.43
		c0,0.61-0.65,0.83-0.65,1.37c0-0.03-0.03,0.11,0,0.11c-0.03,0.12-0.34,0.15-0.34,0.4c-0.25,0.34-0.43,0.19-0.71,0.71
		c-0.99,1.05-3.74,3.46-3.74,3.55v-0.03c-0.34,0-0.37,0.43-0.71,0.43l-0.03-0.03c0.15-0.9,1.02-3.12,1.02-3.74
		c0-0.06-0.03-0.12-0.03-0.19c-0.13,0.06,0.52-1.2,0.52-1.82l0.19-0.53c0.12-0.37,0.25-0.77,0.25-1.17c0-0.62-0.12-0.68-0.37-1.18
		l-0.09,0.12c-0.09-0.15-0.34-0.25-0.49-0.25l-0.13,0.03l-0.12-0.09c-0.28,0-0.25,0.34-0.37,0.46c0,0.34-0.9,1.14-0.9,1.92
		c0,0.12,0.09,0.31,0.22,0.37c0.06,0,0.5-0.65,0.59-0.71c-0.09,0.13-0.15,0.74-0.28,0.8c-0.06,0.84-0.74,1.7-0.74,2.66
		c0,0.03,0.03,0.06,0.03,0.09l-0.06,0.03c-0.15,0.49-0.43,1.64-0.46,1.7l0.06,0.15l-0.12,0.03l0.03,0.06c0,0.15-0.15,0.28-0.15,0.4
		c0,0.02,0,0.04,0,0.06c0.01,0.04,0.04,0.02,0.06-0.02l0.03-0.08c0,0.25-0.09,0.28-0.22,0.5l0.03,0.09c0,0.06-0.22,0.43-0.22,0.62
		c0,0.06,0,0.15,0.06,0.18l-0.06,0.06l-0.12-0.06c-0.4,1.48-0.86,3-1.11,4.48c-0.4,0.74-0.22,1.61-0.49,2.38v0.18
		c-0.26,0.21-0.52,0.38-0.74,0.38c-0.25,0-0.49-0.46-0.62-0.62c-0.06-0.06-0.19-0.03-0.25-0.16c-0.25-0.37-0.28-1.58-0.28-2.19
		v-0.28c0-0.25,0.03-0.52,0.22-0.68c-0.03-0.03-0.03-0.09-0.03-0.18c0-0.62,0.49-2.23,0.49-2.69c0-0.13-0.03-0.22-0.03-0.31
		l0.18-0.19c-0.03-0.12-0.03-0.22-0.03-0.28c0-0.22,0.06-0.28,0.15-0.56c-0.03-0.03-0.03-0.06-0.03-0.09c0-0.43,0.43-1.64,0.52-2.04
		c-0.06-0.06-0.15-0.06-0.15-0.15l0.09-0.09c0,0,0,0.06,0.09,0.06c0.25,0,0.4-1.3,0.4-1.51c0.03-0.37,0.34-0.9,0.43-1.3
		c0.31-1.36,0.53-2.61,1.21-3.78c0-0.37,0.65-1.08,0.65-1.48c0-0.37-0.16-0.74-0.62-0.74c-1.45,0-0.97,0.86-1.71,1.8l-0.26,0.57
		c-0.22,1.3-0.08,0.38-0.42,1.22c-0.28,0.71-0.37,1.54-0.52,2.29c-0.12,0.8-0.99,3.15-0.99,3.61c0,0.16-0.18,0.91-0.41,1.77
		c-0.85,0.97-2.99,3.69-3.42,4.39c-0.22,0.31-1.24,1.58-1.55,1.58l-0.09-0.06c0.03-0.03,0.03-0.03,0.03-0.09
		c0-0.06-0.06-0.15-0.06-0.25c0-0.06,0.15-0.18,0.15-0.28V21.8c0.09-0.56,0.4-1.27,0.4-1.82c0-0.09-0.09-0.06-0.09-0.15
		c0.12-0.09,0.22-0.28,0.25-0.4l-0.12-0.13l-0.03,0.03c0-0.15,0.19-0.06,0.19-0.15c0-0.06-0.03-0.16-0.03-0.25l0.09-0.16l0.03-0.18
		c0.12-0.09,0.5-1.36,0.56-1.51c0.18-0.65,0.59-1.2,0.68-1.89c0-0.25,0.4-0.56,0.4-0.99c0-0.56-0.58-0.99-1.17-0.99
		c-0.28,0-0.4,0.15-0.4,0.37c0,0.24-0.77,2.83-1.06,2.95c-0.18,0.5-0.33,0.94-0.37,1.22l0.09,0.16c-0.03,0.15-0.18,0.25-0.22,0.37
		c-0.06,0.54-0.21,0.53-0.25,0.76c-0.06,0.18-0.1,0.41-0.12,0.49c-0.07,0.21-0.16,0.49-0.16,0.64c0,0.71-0.28,1.07-0.37,1.78
		l-0.03,0.47c0.12,0.34-0.03,0.68,0.28,0.93c0.28,0.31,0.74,0.56,1.21,0.56c0.74,0,1.48-0.68,1.98-1.3
		c0.31-0.37,1.82-3.07,1.85-3.35l-0.03-0.06c-0.03,0.01-0.06,0.04-0.09,0.06c0.35-0.41,0.73-0.81,1.07-1.15
		c-0.15,0.76-0.31,1.47-0.37,2.24c-0.03,0.18-0.25,0.49-0.25,0.68c0,0.22,0.03,0.43,0.03,0.65c0,0.25-0.03,0.49-0.03,0.74
		c0,1.05,0.35,2.91,2.21,2.91c1.16,0,1.75-0.45,2.12-1.02l0.03,0.02c0.06,0,0.43-0.5,0.43-0.93l0.06,0.03
		c0.22-0.31,0.28-0.74,0.37-1.08c0.19-0.71,0.8-2.75,0.96-2.75l0.06,0.06c0.37,0.5,3.92,1.33,4.51,1.79c0.37,0,1.3,0.65,1.76,0.8
		l0.09-0.06c0.13,0,0.28,0.12,0.34,0.22l0.25-0.15c0.03,0.06,0.09,0.12,0.19,0.12c0.03,0,0.22-0.03,0.22-0.09
		C34.77,21.73,33.16,20.77,32.73,20.52"/>
</g>
<g>
	<defs>
		<rect id="SVGID_5_" width="89.5" height="27.69"/>
	</defs>
	<clipPath id="SVGID_6_">
		<use xlink:href="#SVGID_5_"  style="overflow:visible;"/>
	</clipPath>
	<path class="st4" d="M2.92,16.48C2.92,16.49,2.91,16.49,2.92,16.48C2.91,16.49,2.91,16.49,2.92,16.48"/>
</g>
<g>
	<defs>
		<rect id="SVGID_7_" width="89.5" height="27.69"/>
	</defs>
	<clipPath id="SVGID_8_">
		<use xlink:href="#SVGID_7_"  style="overflow:visible;"/>
	</clipPath>
	<path class="st5" d="M5.64,18.76c0,0.16-0.08,0.28-0.13,0.4l-0.05-0.08c0.03-0.16,0.08-0.32,0.18-0.48V18.76z M5.41,20.53
		L5.3,20.49c0.08-0.16,0.11-0.36,0.11-0.57l-0.03-0.04l0.03-0.04c0-0.16-0.03-0.4-0.16-0.48c0-0.08,0.03-0.12,0.11-0.12
		c0.05,0.08,0.16,0.16,0.21,0.24C5.54,19.6,5.41,20.49,5.41,20.53 M5.36,21.09c0,0.08-0.08,0.12-0.13,0.12l-0.05-0.08
		c0-0.16,0.05-0.28,0.18-0.28l0.05,0.12L5.36,21.09z M15.35,23.47l-0.05-0.04c-0.19,0-0.32,0.24-0.5,0.24
		c-0.32,0-0.93,0.08-1.14,0.36c-0.24,0-0.42-0.04-0.63-0.04c-0.13,0-0.29,0.04-0.4,0.04c-0.45,0-0.58-1.49-0.58-1.89
		c0-1.61,0.58-4.39,1.14-5.8c0-0.69,0.29-1.53,0.5-2.18c0.32-0.89,0.32-1.93,0.69-2.82c0.34-0.89,0.42-1.89,0.58-2.82
		c0.11-0.08,0.13-0.36,0.13-0.6c0-0.12,0-0.24-0.02-0.32c0.1-0.2,0.21-0.72,0.24-0.97l0.03-0.32c0-0.2-0.45-0.44-0.56-0.48
		L14.47,5.7l-0.16-0.13c-0.29-0.04-0.36-0.19-0.63-0.27c-0.11,0.32-0.45,1.17-0.48,1.45c-0.13,0.68-1.53,2.17-1.69,2.82
		c0.03,0.08,0.05,0.16,0.05,0.28c0,0.32-0.24,0.69-0.37,0.97l-0.18,0.24c-0.03,0.04,0,0,0,0l-0.08,0.12
		c-0.16,0.32-1.51,2.78-1.51,2.78c-0.37,1.09-0.77,1.73-1.38,2.54C8,16.54,7.97,16.58,7.97,16.66v0.04
		c-0.4,1.21-0.82,1.17-1.16,1.77c-0.08-0.04-0.13-0.12-0.13-0.2c0-0.97,0.24-2.18,0.5-3.06c-0.03-0.08-0.03-0.16-0.03-0.2v-0.2
		c0-0.08,1.93-5.53,1.91-5.61c0-0.24,0.13-0.65,0.13-0.77c0-0.04-0.03-0.16-0.03-0.2c0-0.2,0.16-0.32,0.16-0.52
		c0-0.44-0.4-0.64-0.61-0.77L8.45,6.9c-0.24,0-0.5-0.28-0.69-0.28c-0.11,0-1.09,2.6-2.16,5.21c-0.16,0.25-0.41,0.76-0.69,1.38
		l-0.13,0.2c-0.02,0.12-0.16,0.39-0.32,0.34c-0.01,0.04,0.01,0.25,0,0.29c-0.03,0.16-0.25,0.29-0.26,0.37s0,0.13-0.01,0.2
		c-0.03,0.16-0.38,0.71-0.49,0.88l0.02,0.17l-0.26,0.21c0.01,0.09-0.01,0.2-0.03,0.28c-0.02,0.12-0.03,0.16-0.08,0.27l0.05,0.02
		c0.04,0.01,0.12-0.11,0.23-0.31c-0.17,0.38-0.29,0.62-0.31,0.62c-0.02,0-0.06,0.03-0.11,0.09c0-0.08-0.01-0.14-0.07-0.16
		c-0.08-0.02-0.3,0.4-0.34,0.51l0.02,0.17c-0.09,0.01-0.23,0.09-0.27,0.24l0.03,0.12c-0.02,0.03-0.05,0.07-0.07,0.1
		c-0.05,0.03-0.08,0.09-0.11,0.15c-0.16,0.23-0.34,0.46-0.5,0.67c0.3-0.54,0.64-1.16,0.85-1.46c0.05-0.12,0.08-0.23,0.11-0.33
		c0.05-0.19-0.02-0.18-0.14,0.01c-0.1,0.15-0.22,0.28-0.3,0.24c-0.01,0.04-0.01,0.25-0.02,0.29c-0.04,0.15-0.26,0.27-0.28,0.35
		c-0.02,0.08,0,0.13-0.02,0.2c-0.04,0.15-0.42,0.67-0.54,0.83l0.01,0.17l-0.27,0.18c0,0.09-0.02,0.2-0.04,0.28
		c-0.01,0.03-0.01,0.05-0.02,0.07c-0.15,0.33-0.67,1.57-0.67,1.6l-0.24,0.7c0,0.2-0.34,0.16-0.34,0.4c0,0.12,0.13,0.36,0.24,0.44
		c0,0.08-0.03,0.12-0.03,0.16c0,0.65,0.52,1.1,0.92,1.1c0.45,0,2.3-4.16,2.59-4.84c0.29-0.24,0.53-0.85,0.69-1.25l0.18-0.44
		c0.03-0.04,0.11-0.24,0.11-0.24v0.04c0.13-0.57,1.01-2.42,1.17-2.55c0.05,0-0.4,1.38-0.4,1.46c0,0.85-0.18,0.97-0.18,1.89
		c0,0.44-0.21,0.85-0.21,1.29c0,0.93-0.18,2.06-0.34,2.66l-0.08,0.4c0,0.65,0.81,1.62,0.91,1.62h0.13c0.05-0.04,0.11-0.04,0.16-0.04
		c0,0,0.08,0.04,0.11,0.04c0.42-0.56,0.73-1.45,1.04-2.22c0.19-0.44,1.43-2.78,1.43-3.26v-0.08c0.16-0.44,0.56-0.81,0.56-1.37
		c0-0.48,0.4-0.6,0.48-0.97c0.37-0.85,0.69-2.02,1.19-2.74c0.24-0.36,0.24-0.16,0.4-0.6c0.05-0.12,1.69-2.9,1.74-2.9l0.24-0.36
		l0.08-0.04c0,0.52-0.34,1.41-0.34,1.81c0,0.12,0.05,0.2,0.05,0.32c0,0.12-0.16,0.77-0.32,0.77c0,0.04,0.05,0.24,0.05,0.28
		c0,0.16-0.18,0.36-0.18,0.44c0,0.08,0.03,0.12,0.03,0.2c0,0.16-0.24,0.81-0.32,1.01l0.05,0.16l-0.21,0.28
		c0.03,0.08,0.03,0.2,0.03,0.28c0,0.12,0,0.16-0.03,0.28h0.05c0.19,0,0.79-3.26,1.01-3.26c0,0.52-0.24,1.33-0.37,1.81l-0.24,0.85
		c-0.21,0.24-0.32,1.41-0.5,1.41l0.05-0.2c-0.08-0.12-0.05-0.28-0.16-0.28c-0.08,0-0.21,0.48-0.24,0.6l0.05,0.16
		c-0.08,0.04-0.21,0.16-0.21,0.32l0.08,0.16c-0.1,0.04-0.16,0.2-0.16,0.32l0.05,0.16c0,0.12-0.16,0.2-0.16,0.28l0.05,0.08
		c0.32,0,0.4-1.29,0.61-1.29l0.05,0.08c-0.28,0.23-0.51,1.93-0.55,2.04c0.01,0.15,0.1,0.3,0.1,0.41c0,0.16-0.1,0.28-0.16,0.4
		l0.03,0.04c-0.1,0-0.21,0.16-0.21,0.32l0.1,0.08c-0.13,0.16-0.24,0.36-0.32,0.56c-0.03,0-0.08-0.16-0.08-0.2
		c0-0.2,0.16-0.48,0.16-0.65c0-0.08-0.05-0.16-0.08-0.2l-0.13,0.04l0.02,0.12c-0.21,0.32-0.26,1.29-0.26,1.85v0.24
		c0.13,0.32,0.08,0.72,0.16,1.09c0.42,1.81,1.29,2.78,2.69,2.78c0.74,0,1.11-0.76,1.16-0.76c0.19,0,0.87-0.73,0.87-0.97L15.35,23.47
		z"/>
</g>
<g>
	<defs>
		<rect id="SVGID_9_" width="89.5" height="27.69"/>
	</defs>
	<clipPath id="SVGID_10_">
		<use xlink:href="#SVGID_9_"  style="overflow:visible;"/>
	</clipPath>
	<path class="st6" d="M59.16,18.76c0,0.16-0.08,0.28-0.13,0.4l-0.05-0.08c0.03-0.16,0.08-0.32,0.18-0.48
		C59.16,18.6,59.16,18.76,59.16,18.76z M58.93,20.53l-0.11-0.04c0.08-0.16,0.11-0.36,0.11-0.57l-0.03-0.04l0.03-0.04
		c0-0.16-0.03-0.4-0.16-0.48c0-0.08,0.03-0.12,0.11-0.12c0.05,0.08,0.16,0.16,0.21,0.24C59.06,19.6,58.93,20.49,58.93,20.53
		 M58.87,21.09c0,0.08-0.08,0.12-0.13,0.12l-0.05-0.08c0-0.16,0.05-0.28,0.19-0.28l0.05,0.12L58.87,21.09z M68.86,23.47l-0.05-0.04
		c-0.18,0-0.32,0.24-0.5,0.24c-0.32,0-0.93,0.08-1.14,0.36c-0.24,0-0.42-0.04-0.63-0.04c-0.13,0-0.29,0.04-0.4,0.04
		c-0.45,0-0.58-1.49-0.58-1.89c0-1.61,0.58-4.39,1.14-5.8c0-0.69,0.29-1.53,0.5-2.18c0.32-0.89,0.32-1.93,0.69-2.82
		c0.34-0.89,0.42-1.89,0.58-2.82c0.11-0.08,0.13-0.36,0.13-0.6c0-0.12,0-0.24-0.03-0.32c0.11-0.2,0.21-0.72,0.24-0.97l0.03-0.32
		c0-0.2-0.45-0.44-0.56-0.48L67.99,5.7l-0.16-0.13c-0.29-0.04-0.36-0.19-0.63-0.27c-0.11,0.32-0.45,1.17-0.48,1.45
		c-0.13,0.68-1.53,2.17-1.69,2.82c0.03,0.08,0.05,0.16,0.05,0.28c0,0.32-0.24,0.69-0.37,0.97l-0.18,0.24
		c-0.03,0.04-0.11,0.12-0.11,0.12h0.03c-0.16,0.32-1.51,2.78-1.51,2.78c-0.37,1.09-0.77,1.73-1.38,2.54
		c-0.05,0.04-0.08,0.08-0.08,0.16v0.04c-0.4,1.21-0.82,1.17-1.17,1.77c-0.08-0.04-0.13-0.12-0.13-0.2c0-0.97,0.24-2.18,0.5-3.06
		c-0.03-0.08-0.03-0.16-0.03-0.2v-0.2c0-0.08,1.93-5.53,1.91-5.61c0-0.24,0.13-0.65,0.13-0.77c0-0.04-0.03-0.16-0.03-0.2
		c0-0.2,0.16-0.32,0.16-0.52c0-0.44-0.4-0.64-0.61-0.77L61.97,6.9c-0.24,0-0.5-0.28-0.69-0.28c-0.11,0-1.09,2.6-2.16,5.22
		c-0.16,0.25-0.41,0.76-0.69,1.38l-0.13,0.2c-0.02,0.12-0.17,0.39-0.32,0.34c-0.01,0.04,0.01,0.25,0,0.29
		c-0.03,0.16-0.25,0.29-0.26,0.37s0,0.13-0.01,0.2c-0.03,0.16-0.38,0.71-0.49,0.88l0.02,0.17l-0.26,0.21
		c0.01,0.09-0.01,0.2-0.03,0.28c-0.02,0.12-0.03,0.16-0.08,0.27l0.05,0.02c0.04,0.01,0.12-0.11,0.23-0.31
		c-0.17,0.38-0.29,0.62-0.31,0.62c-0.02,0-0.06,0.03-0.11,0.09c0-0.08-0.01-0.14-0.07-0.16c-0.08-0.02-0.29,0.4-0.34,0.51l0.02,0.17
		c-0.08,0.01-0.23,0.09-0.27,0.24l0.03,0.12c-0.03,0.03-0.05,0.07-0.07,0.1c-0.05,0.03-0.08,0.09-0.1,0.15
		c-0.17,0.23-0.34,0.46-0.5,0.67c0.3-0.54,0.64-1.16,0.85-1.46c0.04-0.12,0.08-0.23,0.11-0.33c0.05-0.19-0.01-0.18-0.14,0.01
		c-0.1,0.15-0.22,0.28-0.3,0.24c-0.01,0.04-0.01,0.25-0.02,0.29c-0.04,0.15-0.26,0.27-0.28,0.35c-0.02,0.08,0,0.13-0.02,0.2
		c-0.04,0.15-0.42,0.67-0.54,0.83l0.01,0.17l-0.27,0.18c0.01,0.09-0.02,0.2-0.04,0.28c-0.01,0.03-0.01,0.05-0.02,0.07
		c-0.15,0.33-0.67,1.57-0.67,1.6l-0.24,0.7c0,0.2-0.34,0.16-0.34,0.4c0,0.12,0.13,0.36,0.24,0.44c0,0.08-0.03,0.12-0.03,0.16
		c0,0.65,0.52,1.1,0.92,1.1c0.45,0,2.3-4.16,2.58-4.84c0.29-0.24,0.53-0.85,0.69-1.25l0.19-0.44c0.03-0.04,0.1-0.24,0.1-0.24v0.04
		c0.13-0.57,1.01-2.42,1.17-2.55c0.05,0-0.4,1.38-0.4,1.46c0,0.85-0.18,0.97-0.18,1.89c0,0.44-0.21,0.85-0.21,1.29
		c0,0.93-0.19,2.06-0.35,2.66l-0.08,0.4c0,0.65,0.81,1.62,0.91,1.62h0.13c0.05-0.04,0.1-0.04,0.16-0.04c0,0,0.08,0.04,0.11,0.04
		c0.42-0.56,0.73-1.45,1.04-2.22c0.19-0.44,1.43-2.78,1.43-3.26v-0.08c0.16-0.44,0.56-0.81,0.56-1.37c0-0.48,0.4-0.6,0.47-0.97
		c0.37-0.85,0.69-2.02,1.19-2.74c0.24-0.36,0.24-0.16,0.4-0.6c0.05-0.12,1.69-2.9,1.75-2.9l0.24-0.36l0.08-0.04
		c0,0.52-0.34,1.41-0.34,1.81c0,0.12,0.05,0.2,0.05,0.32c0,0.12-0.16,0.77-0.32,0.77c0,0.04,0.05,0.24,0.05,0.28
		c0,0.16-0.18,0.36-0.18,0.44c0,0.08,0.03,0.12,0.03,0.2c0,0.16-0.24,0.81-0.32,1.01l0.05,0.16l-0.21,0.28
		c0.03,0.08,0.03,0.2,0.03,0.28c0,0.12,0,0.16-0.03,0.28h0.05c0.18,0,0.79-3.26,1-3.26c0,0.52-0.24,1.33-0.37,1.81l-0.24,0.85
		c-0.21,0.24-0.32,1.41-0.5,1.41l0.05-0.2c-0.08-0.12-0.05-0.28-0.16-0.28c-0.08,0-0.21,0.48-0.24,0.6l0.05,0.16
		c-0.08,0.04-0.21,0.16-0.21,0.32l0.08,0.16c-0.11,0.04-0.16,0.2-0.16,0.32l0.05,0.16c0,0.12-0.16,0.2-0.16,0.28l0.05,0.08
		c0.32,0,0.39-1.29,0.61-1.29l0.06,0.08c-0.28,0.23-0.51,1.93-0.55,2.04c0.01,0.15,0.1,0.3,0.1,0.41c0,0.16-0.11,0.28-0.16,0.4
		l0.03,0.04c-0.11,0-0.21,0.16-0.21,0.32l0.11,0.08c-0.13,0.16-0.24,0.36-0.32,0.56c-0.03,0-0.08-0.16-0.08-0.2
		c0-0.2,0.16-0.48,0.16-0.65c0-0.08-0.05-0.16-0.08-0.2l-0.13,0.04l0.03,0.12c-0.21,0.32-0.26,1.29-0.26,1.85v0.24
		c0.13,0.32,0.08,0.72,0.16,1.09c0.42,1.81,1.29,2.78,2.69,2.78c0.74,0,1.11-0.76,1.16-0.76c0.19,0,0.87-0.73,0.87-0.97L68.86,23.47
		z"/>
</g>
<g>
	<defs>
		<rect id="SVGID_11_" width="89.5" height="27.69"/>
	</defs>
	<clipPath id="SVGID_12_">
		<use xlink:href="#SVGID_11_"  style="overflow:visible;"/>
	</clipPath>
	<path class="st7" d="M74.21,19.87c-0.06,0.51-0.64,1.02-0.64,1.18l-0.06,0.03c-0.06,0-0.1,0.48-0.58,0.48l-0.06-0.03l0.1-0.06
		l-0.03-0.03c0.48-0.55,0.61-1.38,0.96-1.79c0.1-0.13,0.45-0.42,0.45-0.58l0.1,0.03C74.24,19.33,74.24,19.61,74.21,19.87
		 M70.46,23.2c-0.35,0-0.38-0.26-0.38-0.51c0.06-0.06,0.13-0.19,0.13-0.29l-0.16-0.16c0-0.06,0.26-0.16,0.26-0.45
		c0-0.13-0.06-0.26-0.06-0.39l0.22-0.48c0.26-0.38,0.67-1.18,0.67-1.57c0-0.07-0.03-0.13-0.03-0.16c0.06-0.1,0.26-0.13,0.26-0.22
		l-0.03-0.03l0.1-0.14l0.02-0.08l0.22-0.38l0.06,0.16c0.26-0.22,0.96-1.71,1.09-1.71l0.03-0.02l0.06,0.06l0.22,0.51
		c0.13,0.35,0.29,0.7,0.38,1.06l0.03-0.03l0.06,0.09c0.07-0.03,0.1-0.13,0.13-0.16c0,0.06,0.03,0.16,0.03,0.26
		c0,0.19-0.22,0.42-0.22,0.61c0,1.18-0.74,2.4-1.63,3.26C71.78,22.56,70.66,23.2,70.46,23.2 M70.11,15.29
		c0-0.29,0.22-1.31,0.67-1.31c0.22,0,1.28,0.74,1.28,1.25c0,0.13-0.29,0.58-0.38,0.64c-0.22,0-0.38,1.02-0.89,1.28
		C70.43,16.8,70.11,15.93,70.11,15.29 M73.09,16.57c0.03,0.1,0.22-0.03,0.22,0.61c-0.06,0-0.06-0.13-0.06-0.19v-0.07
		c-0.1-0.06-0.16-0.19-0.19-0.32L73.09,16.57z M73.73,18.17l-0.13,0.03h-0.03c0-0.03,0-0.03,0.03-0.06c-0.03-0.13-0.1-0.23-0.1-0.35
		c0-0.03,0.03-0.1,0.03-0.1c-0.1-0.1-0.1-0.16-0.1-0.26C73.6,17.63,73.6,17.89,73.73,18.17 M73.95,15.61l0.03,0.13l-0.06,0.1h-0.03
		c-0.03,0-0.03-0.06-0.03-0.13C73.86,15.65,73.89,15.61,73.95,15.61 M74.98,18.21l-0.13,0.13v-0.16c0-0.51-0.22-1.18-0.7-1.5v-0.13
		c0-0.1,0-0.16-0.03-0.25c0-0.26,1.12-0.38,1.12-1.34c0-0.32-0.54-0.45-0.8-0.45c-0.45,0-0.8,0.06-1.18,0.06
		c-0.32,0-0.93-1.15-2.11-1.15c-0.07,0-0.1,0.03-0.13,0.03c-0.19-0.03-0.38-0.1-0.57-0.1c-0.67,0-1.18,0.45-1.18,0.96
		c0,0.19,0.1,0.35,0.1,0.54c0,0.03-0.03,0.03-0.03,0.06c0.16,0.35,0.26,0.77,0.38,1.12c0.13,0.32,0.99,1.15,0.99,1.44
		c0,0.13-0.48,0.35-0.48,0.7l-0.16,0.22l-0.07,0.1c-0.13,0.38-0.44,0.6-0.64,0.99c-0.1,0.29-0.06,0.74-0.35,0.93
		c-0.16,0.45-0.16,0.93-0.38,1.34l0.06,0.23c-0.03,0.1-0.03,0.19-0.03,0.29c0,0.51,0.42,0.96,0.77,1.31
		c0.35,0.38,1.18,0.38,1.69,0.38c2.08,0,3.65-2.43,4.1-4.7V19.2C75.2,19.04,75.2,18.21,74.98,18.21"/>
</g>
<g>
	<defs>
		<rect id="SVGID_13_" width="89.5" height="27.69"/>
	</defs>
	<clipPath id="SVGID_14_">
		<use xlink:href="#SVGID_13_"  style="overflow:visible;"/>
	</clipPath>
	<path class="st8" d="M81.03,18.77l-0.06,0.03v-0.15l0.12-0.06l0.03,0.06L81.03,18.77z M80.7,19.74c-0.06-0.03-0.06-0.09-0.06-0.15
		c0.06-0.06,0.15-0.46,0.21-0.46c0.06,0,0.06,0.12,0.06,0.15C80.82,19.41,80.73,19.59,80.7,19.74 M80.73,20.65
		c-0.03,0-0.09-0.03-0.09-0.09c0-0.06,0.03-0.18,0.15-0.18c0.03,0.03,0.03,0.09,0.03,0.12C80.82,20.53,80.73,20.62,80.73,20.65
		 M76.1,20.4c-0.03,0-0.08-0.06-0.08-0.09c0-0.09,0.09-0.2,0.1-0.34c0.06-0.08,0.01-0.38,0.13-0.37l0.03,0.03
		C76.2,19.88,76.11,20.16,76.1,20.4 M75.93,21.08c-0.06,0.06-0.09,0.11-0.09,0.17c0.01-0.2,0.04-0.43,0.14-0.63
		c-0.03,0-0.03-0.06-0.03-0.09c0-0.03,0.03-0.09,0.12-0.08C75.97,20.65,75.94,20.85,75.93,21.08 M82.85,17.77
		c0.27-0.27,0.49-0.79,0.61-1.15c0.55-0.4,1.67-3.1,2.58-3.1c0.43,0,0.49,1.09,0.49,1.34c0,0.36-0.21,0.73-0.27,1.09
		c-0.03,0.24-2.06,1.79-2.4,1.79c-0.15,0.09-0.73,0.39-0.88,0.39c-0.12,0-0.12-0.18-0.12-0.24V17.77z M87.04,14.62l0.09,0.03
		l-0.03,0.06c-0.06,0.27-0.21,0.61-0.39,0.85c-0.09,0-0.12-0.12-0.12-0.21C86.58,15.25,86.95,14.62,87.04,14.62 M89.2,18.36
		c-0.03,0.24-0.34,0.23-0.58,0.35c-2.12,1-3.34,4.13-6.31,4.13c-0.49,0-0.49-0.88-0.49-1.18c0-0.27,0.09-1.03,0.09-1.36v-0.12
		c0.21-0.15,0.33-1.49,0.76-1.49c0.18,0,0.33,0.03,0.52,0.03c1.21,0,3.4-1.03,3.76-2.15c0.18-0.61,0.76-0.36,0.76-1.88
		c0-1.03-0.91-1.88-2.06-1.88c-0.73,0-1.34,0.15-1.79,0.67c-0.35,0.39-1.2,1.35-1.86,2.27c-0.01-0.01-0.01-0.02-0.02-0.03
		c-0.04-0.05-0.1-0.07-0.1-0.07l0.02-0.02c-0.3-0.2-0.51-0.42-0.79-0.61c-0.05-0.05-0.11-0.09-0.19-0.12
		c-0.02-0.01-0.04-0.02-0.06-0.03c-0.03,0-0.07,0-0.1,0c0,0,0,0,0,0c-0.01,0-0.02-0.01-0.03-0.01c-0.06,0-0.12,0.02-0.12,0.02
		l-0.24,0.03c-0.44,0.13-0.58,0.06-1.02,0.24c-0.21,0.31-0.51,0.59-0.81,0.84c-0.14,0.12-0.29,0.32-0.44,0.54
		c0.11-0.52,0.08-1.06,0.46-1.52l-0.03-0.09c0.01-0.29,0.19-0.54,0.2-0.8l0.01-0.23c0-0.09,0.01-0.2,0.07-0.34l0-0.03
		c0-0.08-0.06-0.09-0.08-0.09l0-0.12l-0.09,0l-0.25-0.18c-0.12,0-0.19-0.04-0.19-0.13l-0.1,0.03l-0.06,0.06l-0.06-0.03
		c-0.06,0-0.15,0.11-0.21,0.14l0.06,0.06c0,0.06-0.06,0.14-0.12,0.17c-0.33,1.12-0.73,2.06-1.09,3.2c-0.03,0.08-0.32,1-0.35,1.06
		c0.03,0.09,0.02,0.2,0.02,0.29l-0.01,0.35l-0.06,0.08l0.03,0.12c-0.06,0.06-0.09,0.17-0.12,0.25c-0.03,0.95-0.51,1.51-0.54,2.21
		c0,0.03,0.03,0.09,0.03,0.09c-0.06,0.14,0.01,0.49-0.14,0.57l0.03,0.15l-0.1,0.43c-0.05,0.69-0.44,1.08-0.44,1.2
		c0.14,0.09,0.25,0.18,0.37,0.3l0.09-0.03c0.05,0.09,0.28,0.23,0.43,0.23l0.18-0.02c0.14-0.02,0.43,0,0.43-0.15l0.1-0.04
		c0.15-0.25,0.18-0.25,0.27-0.53l0.03-0.13l0.11-0.24c0.23-1.16,0.49-2.32,0.79-3.47l0.03-0.1c0-0.01,0-0.01,0.01-0.02
		c0.19-0.42,0.51-0.69,0.64-1.15l0.06-0.03v-0.03c0-0.11,0.25-0.45,0.31-0.54l-0.03,0c0-0.11,0.86-0.61,0.88-1.21h-0.03
		c0.12-0.05,0.44-0.22,0.45-0.39c0.12,0.01,0.29-0.02,0.29-0.02l0.09,0.03l0.03-0.02c0.12,0.03,0.19,0.06,0.26,0.01
		c0.07,0.09,0.11,0.12,0.15,0.14l0.09,0.05l0.03,0.09l0.22,0.05l-0.01,0.08c0.13,0.06,0.23,0.12,0.34,0.15
		c-0.25,0.42-0.42,0.8-0.42,1.05c0,0.42-0.52,1.03-0.43,0.94c-0.49,0.82-0.55,2.03-0.55,2.94c0,1.27,1.4,2.12,3.13,2.12
		c0.18,0,1.91-0.6,2.09-0.73c0.27-0.18,0.52-0.37,0.79-0.52l-0.12-0.09c0.21-0.12,0.39-0.27,0.51-0.39l-0.36-0.15
		c-0.33,0.15-0.54,0.42-0.94,0.52l-0.03-0.03l0.24-0.18l-0.15-0.06c0.06-0.3,1.03-0.7,1.33-0.91c1.03-0.73,2.06-1.61,2.85-2.61
		L89.2,18.36z"/>
</g>
</svg>
