<?xml version="1.0" encoding="utf-8"?>
<!-- Generator: Adobe Illustrator 21.0.0, SVG Export Plug-In . SVG Version: 6.00 Build 0)  -->
<svg version="1.1" id="Layer_1" xmlns="http://www.w3.org/2000/svg" xmlns:xlink="http://www.w3.org/1999/xlink" x="0px" y="0px"
	 viewBox="0 0 25 20" style="enable-background:new 0 0 25 20;" xml:space="preserve">
<style type="text/css">
	.st0{fill:#FFFFFF;}
</style>
<path class="st0" d="M23.6,8.2c0,0,0.1-0.5-0.4-0.7L22.9,7L23,6.4c0,0,0.9,0.1,1.2-0.2c0.1-0.1,1.1-0.9-0.1-1.5c-2-0.7-1.8,1-1.8,1
	C22.4,5.8,22.4,6,22.4,6s-0.1,0.3-0.2,0.3c-0.1-0.1-0.3-0.3-0.3-0.2c0-0.8-2.1-4.9-2.1-4.9c0-0.1-0.2-0.2-0.2-0.2
	c-0.2-0.2-0.7-0.7-0.7-0.7S18.5,0,18.2,0.2c-0.1,0-0.1,0.2-0.4,0.1C15.9,0.1,14.1,0,12.5,0S9.1,0.1,7.2,0.3c-0.3,0-0.3-0.1-0.4-0.1
	C6.5,0,6.1,0.3,6.1,0.3S5.6,0.9,5.4,1c0,0-0.2,0.1-0.2,0.3c0,0-2.1,4-2.1,4.9c0-0.1-0.2,0.1-0.3,0.2C2.7,6.2,2.6,6,2.6,6
	s0-0.2,0.1-0.3c0,0.1,0.2-1.6-1.8-1c-1.2,0.6-0.3,1.4-0.1,1.5C1.1,6.5,2,6.4,2,6.4L2.1,7c0,0-0.2,0.5-0.3,0.5
	C1.4,7.8,1.4,8.2,1.4,8.2s-1,1.4-0.9,2.3c0,0,0,1.7,0.1,2.5c-0.2,1,0.2,6.2,0.2,6c0.2,1,0.8,1,0.8,1h1.8c0,0,0.7-0.1,0.8-0.7
	c0,0,0,0,0-0.1l0,0v-1.5c0.5-0.1,1.4-0.1,3-0.1c-0.1,0,2.6,0,5.3,0c2.6,0,5.3-0.1,5.3,0c1.6,0,2.5,0,3,0.1v1.5l0,0v0.1
	c0.1,0.6,0.8,0.7,0.8,0.7h1.8c0,0,0.7,0,0.7-0.9c0,0.1,0.4-5,0.2-6c0.1-0.8,0.1-2.5,0.1-2.5C24.5,9.7,23.6,8.2,23.6,8.2z M4.4,4.8
	l1.4-3C6,1.4,6.3,1.5,6.3,1.5S9,1.4,12.5,1.4c3.6,0,6.2,0.1,6.2,0.1s0.3-0.1,0.5,0.3l1.4,3C21,5.9,20,5.7,20,5.7s-3.4-0.2-7.6-0.2
	S4.8,5.7,4.8,5.7S4,5.9,4.4,4.8z M5,10.9c-0.2,0.9-1,1.4-1.7,1.3c-0.8-0.2-1.3-1-1.1-1.9c0.2-0.9,1-1.4,1.7-1.3
	C4.7,9.1,5.2,10,5,10.9z M19.5,13.9c-0.4,0.2-3.7,0.3-7,0.3s-6.6-0.1-7-0.3c-0.6-0.2-0.4-0.6-0.4-0.6s0.1-0.5,0.6-0.9
	c0.4-0.3,1.1-0.8,2.6-0.9c1.4-0.1,2.8-0.1,4.2-0.1c1.3,0,2.7,0,4.2,0.1c1.6,0.1,2.2,0.6,2.6,0.9c0.4,0.4,0.6,0.9,0.6,0.9
	S20.1,13.8,19.5,13.9z M21.7,12.1c-0.8,0.2-1.6-0.4-1.7-1.3C19.8,10,20.3,9.1,21.1,9c0.8-0.2,1.6,0.4,1.7,1.3
	C23,11.1,22.5,12,21.7,12.1z"/>
</svg>
