<?xml version="1.0" encoding="utf-8"?>
<!-- Generator: Adobe Illustrator 22.1.0, SVG Export Plug-In . SVG Version: 6.00 Build 0)  -->
<svg version="1.1" id="star" xmlns="http://www.w3.org/2000/svg" xmlns:xlink="http://www.w3.org/1999/xlink" x="0px" y="0px"
	 viewBox="0 0 20.997 20" style="enable-background:new 0 0 20.997 20;" xml:space="preserve">
<style type="text/css">
	.st0{fill:#EBAE34;}
</style>
<path id="star_1_" class="st0" d="M10.576,0.214l2.541,7.147c0.011,0.031,0.04,0.053,0.074,0.054l7.582,0.209
	c0.076,0.002,0.107,0.098,0.047,0.144l-6.012,4.626c-0.026,0.02-0.038,0.055-0.028,0.087l2.145,7.276
	c0.021,0.073-0.06,0.132-0.123,0.089l-6.257-4.288c-0.027-0.019-0.064-0.019-0.091,0l-6.257,4.288
	c-0.063,0.043-0.144-0.017-0.123-0.089l2.145-7.276c0.009-0.032-0.002-0.066-0.028-0.087L0.18,7.767
	C0.12,7.721,0.151,7.625,0.227,7.622l7.582-0.209C7.842,7.413,7.871,7.392,7.883,7.36l2.541-7.147
	C10.449,0.142,10.551,0.142,10.576,0.214z"/>
</svg>
