<?xml version="1.0" encoding="utf-8"?>
<!-- Generator: Adobe Illustrator 22.0.1, SVG Export Plug-In . SVG Version: 6.00 Build 0)  -->
<svg version="1.1" id="Layer_1" xmlns="http://www.w3.org/2000/svg" xmlns:xlink="http://www.w3.org/1999/xlink" x="0px" y="0px"
	 viewBox="0 0 150 52.198" style="enable-background:new 0 0 150 52.198;" xml:space="preserve">
<style type="text/css">
	.st0{fill:#FFFFFF;}
</style>
<g>
	<path class="st0" d="M44.231,27.386h-8.001l4.058-12C41.525,19.376,43.033,23.397,44.231,27.386"/>
	<polygon class="st0" points="68.933,30.966 53.149,30.966 53.149,23.181 64.395,23.181 64.395,18.66 53.043,18.66 53.043,12.817 
		67.779,12.817 67.779,8.096 47.598,8.096 47.598,20.775 52.816,35.887 68.933,35.887 	"/>
	<path class="st0" d="M144.566,27.224c0,0,0-0.781-0.32-1.317c-0.334-0.526,0,0,0,0L132.514,8.105h-4.824v27.783h5.174
		l-0.074-18.541c0,0,0.155,0.314,0.494,0.917c0.341,0.594,11.534,17.624,11.534,17.624H150V8.105h-5.434V27.224z"/>
	<polygon class="st0" points="132.888,42.797 132.888,46.017 56.201,46.017 55.12,42.797 	"/>
	<path class="st0" d="M82.725,25.228h6.901c-0.669,5.316-5.487,6.245-6.782,6.245c-4.015,0-7.847-2.663-8.141-9.261
		c-0.302-6.825,3.74-9.965,7.96-9.965c4.151,0,6.246,4.004,6.911,5.075l4.585-1.974c-0.195-1.046-3.17-7.788-11.83-7.788
		c-9.515-0.062-13.148,7.123-13.148,14.569c0,9.558,6.487,14.022,12.628,14.17c5.409,0.124,6.751-1.796,7.909-3.009v2.519h4.466
		v-15.15h-11.46V25.228z"/>
	<polygon class="st0" points="49.063,40.822 13.338,52.198 0,12.922 40.447,0 43.238,8.093 37.551,8.093 28.205,35.888 
		33.728,35.888 35.122,32.192 46.129,32.192 	"/>
	<path class="st0" d="M103.138,21.894c0-7.69,4.664-9.865,7.737-9.865c3.06,0,7.959,2.306,7.862,9.979
		c-0.105,7.587-4.801,9.285-7.862,9.285C107.802,31.293,103.138,29.568,103.138,21.894 M97.467,21.894
		c0,9.793,6.879,14.299,13.498,14.299c4.193,0,13.288-2.197,13.288-14.299c0-12.071-9.782-14.45-13.378-14.45
		C107.302,7.444,97.467,9.867,97.467,21.894"/>
</g>
</svg>
