<?xml version="1.0" encoding="utf-8"?>
<!-- Generator: Adobe Illustrator 22.0.1, SVG Export Plug-In . SVG Version: 6.00 Build 0)  -->
<svg version="1.1" id="rocket" xmlns="http://www.w3.org/2000/svg" xmlns:xlink="http://www.w3.org/1999/xlink" x="0px" y="0px"
	 viewBox="0 0 370 370" style="enable-background:new 0 0 370 370;" xml:space="preserve">
<style type="text/css">
	.st0{fill:#FDC539;}
	.st1{fill:#F89740;}
	.st2{fill:#FFE6A4;}
</style>
<g>
	<path class="st0" d="M108.4,261.6L7.8,362.2c29.9,4.5,76.3-9.9,100.6-34.2c13.3-13.3,20.7-29.6,21.8-44.6L108.4,261.6z"/>
	<path class="st0" d="M86.6,239.8c-15.1,1.1-31.4,8.5-44.6,21.8C17.7,285.9,3.3,332.3,7.8,362.2l100.6-100.6L86.6,239.8z"/>
</g>
<path class="st1" d="M7.8,362.2c29.9,4.5,76.3-9.9,100.6-34.2c13.3-13.3,20.7-29.6,21.8-44.6l-21.8-21.8L7.8,362.2L7.8,362.2z"/>
<path class="st2" d="M40.9,329.1c-3.2-21.2,7-54.1,24.2-71.3c7.5-7.5,16.4-12.4,25.1-14.4l18.2,18.2L40.9,329.1L40.9,329.1z"/>
<path class="st0" d="M40.9,329.1c21.2,3.2,54.1-7,71.3-24.2c7.5-7.5,12.4-16.4,14.4-25.1l-18.2-18.2L40.9,329.1L40.9,329.1z"/>
</svg>
