<?xml version="1.0" encoding="utf-8"?>
<!-- Generator: Adobe Illustrator 22.0.1, SVG Export Plug-In . SVG Version: 6.00 Build 0)  -->
<svg version="1.1" id="rocket" xmlns="http://www.w3.org/2000/svg" xmlns:xlink="http://www.w3.org/1999/xlink" x="0px" y="0px"
	 viewBox="0 0 370 370" style="enable-background:new 0 0 370 370;" xml:space="preserve">
<style type="text/css">
	.st0{fill:#F58223;}
	.st1{fill:#ECECEB;}
	.st2{fill:#FFFFFF;}
	.st3{fill:#FCC694;}
	.st4{fill:#A96126;}
	.st5{fill:#DB7726;}
	.st6{fill:#8DC7A9;}
	.st7{fill:#6BA585;}
	.st8{fill:#47C0B6;}
	.st9{fill:#147968;}
	.st10{fill:#83CFCD;}
</style>
<rect x="318.197" y="28.462" transform="matrix(-0.7071 0.7071 -0.7071 -0.7071 602.6263 -191.8836)" class="st0" width="45.714" height="0.808"/>
<path class="st1" d="M145.211,270.788c34.834-10.493,81.927-42.332,112.896-73.301c37.29-37.29,66.208-95.876,78.884-141.365
	l-31.057-31.057L102.711,228.288L145.211,270.788L145.211,270.788z"/>
<path class="st1" d="M164.211,290.788c34.834-10.493,81.927-42.332,112.896-73.301c37.29-37.29,66.208-95.876,78.884-141.365
	l-31.057-31.057L121.711,248.288L164.211,290.788L164.211,290.788z"/>
<path class="st2" d="M79.211,205.789c10.494-34.833,42.332-81.926,73.302-112.895c37.29-37.29,95.876-66.208,141.365-78.885
	l31.057,31.057L121.711,248.288L79.211,205.789L79.211,205.789z"/>
<path class="st3" d="M79.211,205.789l-56.283,3.381c-10.771,3.014-12.865-5.675-12.013-12.835
	c6.169-51.836,101.205-105.15,151.442-111.729c5.683-0.239,9.229,5.439,0.845,11.475C129.644,120.244,89.21,172.418,79.211,205.789
	L79.211,205.789z"/>
<path class="st4" d="M108.412,261.587l-25.201-25.201c-3.908-3.908-7.971-9.416-7.206-15.884c0.54-4.565,1.636-9.504,3.206-14.714
	l42.5,42.5L108.412,261.587L108.412,261.587z"/>
<path class="st0" d="M293.935,14.066c30.417-8.476,54.982-9.696,63.395-1.282l-32.339,32.339L293.935,14.066L293.935,14.066z"/>
<path class="st4" d="M108.412,261.587l25.201,25.201c3.908,3.908,9.417,7.972,15.885,7.207c4.565-0.54,9.503-1.637,14.713-3.207
	l-42.5-42.5L108.412,261.587L108.412,261.587z"/>
<path class="st0" d="M94.893,283.318c-7.084,4.701-14.516-1.265-9.418-10.04c5.099-8.776,76.896-89.118,93.065-99.156
	c12.994-8.065,27.682,2.143,19.722,15.598C185.775,210.831,110.675,272.848,94.893,283.318L94.893,283.318z"/>
<path class="st5" d="M94.893,283.318c-2.462,1.635-6.003,2.487-8.721,0.497c-0.598-0.437-1.107-0.99-1.498-1.64
	c0.769,0.558,2.59,0.559,3.628-0.479l96.719-96.719c4.887-4.887,3.855-12.198-6.48-10.856c12.993-8.064,27.681,2.143,19.721,15.598
	C185.774,210.83,110.675,272.848,94.893,283.318L94.893,283.318z"/>
<path class="st6" d="M219.403,150.597c-14.077-14.077-14.075-36.898,0.002-50.975c14.075-14.075,36.897-14.077,50.973,0
	L219.403,150.597L219.403,150.597z"/>
<path class="st7" d="M219.403,150.597c14.076,14.076,36.899,14.076,50.976-0.001c14.075-14.075,14.076-36.898-0.001-50.974
	L219.403,150.597L219.403,150.597z"/>
<path class="st3" d="M207.915,162.084c-20.421-20.421-20.422-53.53,0-73.952c20.421-20.421,53.529-20.42,73.951,0.001
	L207.915,162.084L207.915,162.084z"/>
<path class="st4" d="M207.915,162.084c20.421,20.421,53.53,20.422,73.952,0c20.421-20.421,20.42-53.53-0.001-73.951L207.915,162.084
	L207.915,162.084z"/>
<path class="st0" d="M210.488,159.512c-19-19-19-49.805,0.001-68.806c18.999-18.999,49.804-18.999,68.804,0.001L210.488,159.512
	L210.488,159.512z"/>
<path class="st5" d="M210.488,159.512c18.999,18.999,49.804,19,68.805-0.001c18.999-18.999,18.999-49.804,0-68.804L210.488,159.512
	L210.488,159.512z"/>
<path class="st4" d="M216.829,153.17c-15.498-15.498-15.498-40.624,0.001-56.123c15.497-15.497,40.623-15.497,56.121,0.001
	L216.829,153.17L216.829,153.17z"/>
<path class="st0" d="M216.829,153.17c15.497,15.497,40.624,15.498,56.123-0.001c15.497-15.497,15.497-40.624-0.001-56.121
	L216.829,153.17L216.829,153.17z"/>
<path class="st0" d="M79.211,205.789l-56.283,3.381c-9.731,0.584-6.851-10.943-5.494-16.403
	c10.193-40.966,94.38-83.226,134.835-88.047C120.995,131.483,89.105,175.506,79.211,205.789L79.211,205.789z"/>
<path class="st8" d="M219.403,150.597c-14.077-14.077-14.075-36.898,0.002-50.975c14.075-14.075,36.897-14.077,50.973,0
	L219.403,150.597L219.403,150.597z"/>
<path class="st9" d="M219.403,150.597c14.076,14.076,36.899,14.076,50.976-0.001c14.075-14.075,14.076-36.898-0.001-50.974
	L219.403,150.597L219.403,150.597z"/>
<path class="st10" d="M250.063,89.442l-20.116,50.613l16.373-16.373l12.625-31.768C256.081,90.704,253.096,89.878,250.063,89.442
	L250.063,89.442z"/>
<path class="st8" d="M229.946,140.055l-5.779,14.534c2.562,1.807,5.307,3.239,8.159,4.3l13.993-35.207L229.946,140.055
	L229.946,140.055z"/>
<path class="st4" d="M164.21,290.788l-3.38,56.283c-3.014,10.771,5.676,12.866,12.836,12.013
	c51.406-6.118,104.26-99.633,111.547-150.179c-2.654,2.965-5.356,5.833-8.105,8.582c-30.881,30.881-77.789,62.619-112.592,73.206
	L164.21,290.788L164.21,290.788z"/>
<path class="st5" d="M164.21,290.788l-3.38,56.283c-0.584,9.73,10.943,6.852,16.404,5.492c36.927-9.186,74.9-78.49,85.561-121.699
	c-29.981,26.325-68.771,50.942-98.584,59.923h-0.001V290.788L164.21,290.788z"/>
<path class="st5" d="M355.991,76.122c8.476-30.417,9.695-54.982,1.282-63.395l-32.339,32.339L355.991,76.122L355.991,76.122z"/>
</svg>
