<svg xmlns="http://www.w3.org/2000/svg" xmlns:xlink="http://www.w3.org/1999/xlink" width="216" height="52" viewBox="0 0 216 52">
  <defs>
    <clipPath id="clip-path">
      <rect id="crop" width="216" height="52" transform="translate(-0.197 -1.77)" fill="none"/>
    </clipPath>
    <linearGradient id="linear-gradient" x1="-3.373" y1="-1.394" x2="11.583" y2="5.976" gradientUnits="objectBoundingBox">
      <stop offset="0" stop-color="#aa7a4d"/>
      <stop offset="0.167" stop-color="#ffd89e"/>
      <stop offset="0.587" stop-color="#d7b175"/>
      <stop offset="1" stop-color="#aa7a4d"/>
    </linearGradient>
    <linearGradient id="linear-gradient-2" x1="-0.722" y1="-0.774" x2="2.152" y2="2.587" xlink:href="#linear-gradient"/>
    <linearGradient id="linear-gradient-3" x1="-3.005" y1="-5.864" x2="4.844" y2="8.442" xlink:href="#linear-gradient"/>
    <linearGradient id="linear-gradient-4" x1="-2.136" y1="-3.262" x2="2.679" y2="3.734" xlink:href="#linear-gradient"/>
    <linearGradient id="linear-gradient-5" x1="-9.637" y1="-9.896" x2="5.479" y2="5.52" xlink:href="#linear-gradient"/>
    <linearGradient id="linear-gradient-6" x1="-9.251" y1="-8.017" x2="4.251" y2="3.651" xlink:href="#linear-gradient"/>
    <linearGradient id="linear-gradient-7" x1="-8.175" y1="-8.763" x2="5.558" y2="5.732" xlink:href="#linear-gradient"/>
    <linearGradient id="linear-gradient-8" x1="-1.786" y1="-3.496" x2="2.507" y2="3.998" xlink:href="#linear-gradient"/>
    <linearGradient id="linear-gradient-9" x1="-5.327" y1="-5.359" x2="7.191" y2="7.407" xlink:href="#linear-gradient"/>
    <linearGradient id="linear-gradient-10" x1="-0.887" y1="-0.816" x2="5.16" y2="4.596" xlink:href="#linear-gradient"/>
    <linearGradient id="linear-gradient-11" x1="-1.881" y1="-2.411" x2="12.916" y2="15.667" xlink:href="#linear-gradient"/>
    <linearGradient id="linear-gradient-12" x1="-0.77" y1="-0.819" x2="7.36" y2="7.643" xlink:href="#linear-gradient"/>
    <linearGradient id="linear-gradient-13" x1="-0.15" y1="0.015" x2="0.836" y2="0.767" xlink:href="#linear-gradient"/>
    <linearGradient id="linear-gradient-14" x1="-5.07" y1="-3.941" x2="4.203" y2="3.37" xlink:href="#linear-gradient"/>
    <linearGradient id="linear-gradient-15" x1="-16.381" y1="-11.668" x2="2.47" y2="1.928" xlink:href="#linear-gradient"/>
    <linearGradient id="linear-gradient-16" x1="-10.494" y1="-6.209" x2="2.914" y2="2.013" xlink:href="#linear-gradient"/>
    <linearGradient id="linear-gradient-17" x1="-3.183" y1="-4.407" x2="1.974" y2="2.327" xlink:href="#linear-gradient"/>
    <linearGradient id="linear-gradient-18" x1="-11.121" y1="-8.206" x2="2.651" y2="2.108" xlink:href="#linear-gradient"/>
    <linearGradient id="linear-gradient-19" x1="-4.716" y1="-2.766" x2="8.809" y2="5.692" xlink:href="#linear-gradient"/>
    <linearGradient id="linear-gradient-20" x1="-6.263" y1="-4.037" x2="8.723" y2="6.018" xlink:href="#linear-gradient"/>
  </defs>
  <g id="NFUM_Primarylogo_Bespoke_Insurance_BLACK_GOLD" transform="matrix(1, 0, 0, 1, 0.197, 1.77)" clip-path="url(#clip-path)">
    <path id="Path_102" data-name="Path 102" d="M47.188,8.092h2.965l7.561,13.436a41.312,41.312,0,0,1,2,4.419s-.247-3.375-.278-6.411l-.1-11.443h2.53V29.136H59.184L51.87,16.253C50.5,13.7,49.435,11.19,49.435,11.19s.25,3.007.282,5.737l.126,12.209H47.188Z" fill="#161615"/>
    <path id="Path_103" data-name="Path 103" d="M69.481,8.091H80.752l-.4,2.087H72.072v6.9h6.869v2.055H72.072v10h-2.59Z" fill="#161615"/>
    <path id="Path_104" data-name="Path 104" d="M85.174,8.092H87.7V22.264a9.6,9.6,0,0,0,.37,3.037c.41.92,1.565,2.054,4.188,2.054,1.779,0,3.12-.458,3.778-1.317a4.881,4.881,0,0,0,.809-3.281V8.092h2.532v14.97c0,2.543-.343,3.746-1.623,4.816-1.311,1.106-3.029,1.626-5.621,1.626-3.31,0-5.183-.946-6.339-3.035a7.064,7.064,0,0,1-.624-3.284Z" fill="#161615"/>
    <path id="Path_105" data-name="Path 105" d="M117.686,8.159l2.878,10.684a31.714,31.714,0,0,1,.738,3.327c.187-1.087.433-2.177.772-3.419l2.974-10.592h5.411l1.907,20.976h-4.075l-.947-11.664c-.093-1.333-.155-2.392-.155-3.513-.247,1.212-.431,1.965-.8,3.242l-3.465,11.935h-3.52l-3.127-11.482c-.277-1.031-.646-2.516-.861-3.724,0,1.24-.064,2.482-.155,3.784l-.887,11.422h-4.137l2-20.976Z" fill="#161615"/>
    <path id="Path_106" data-name="Path 106" d="M163.559,16.635h-2.684v7.5c0,2,.374,2.517,1.809,2.517a5.619,5.619,0,0,0,1.5-.309l.533,2.456a8.93,8.93,0,0,1-3.406.7c-2.121,0-3.807-.92-4.307-2.3a5.661,5.661,0,0,1-.282-2.422V16.635h-2.177v-3.2h2.177a26.2,26.2,0,0,1,.16-3.716l4.244-1.04a45.961,45.961,0,0,0-.248,4.756h3.746Z" fill="#161615"/>
    <path id="Path_107" data-name="Path 107" d="M141.772,13.029v10.1a6.119,6.119,0,0,0,.344,2.579,1.677,1.677,0,0,0,1.466.734,3.093,3.093,0,0,0,2.589-1.5V13.891l4-.827V25.058a3.85,3.85,0,0,0,.893,2.8l-2.731,1.822a3.252,3.252,0,0,1-1.411-1.654,6.026,6.026,0,0,1-4.217,1.5c-2.25,0-4.185-1.044-4.714-2.546a9.151,9.151,0,0,1-.346-3.127V13.8Z" fill="#161615"/>
    <path id="Path_108" data-name="Path 108" d="M173.052,13.029v10.1a6.151,6.151,0,0,0,.341,2.579,1.687,1.687,0,0,0,1.468.734,3.092,3.092,0,0,0,2.591-1.5V13.891l4-.827V25.058a3.843,3.843,0,0,0,.9,2.8l-2.731,1.822a3.253,3.253,0,0,1-1.413-1.654,6.025,6.025,0,0,1-4.215,1.5c-2.248,0-4.184-1.044-4.716-2.546a9.226,9.226,0,0,1-.342-3.127V13.8Z" fill="#161615"/>
    <path id="Path_109" data-name="Path 109" d="M195.091,22.264c-2.9,0-3.9.522-3.9,2.393a1.876,1.876,0,0,0,1.843,2.055,3.048,3.048,0,0,0,2.186-1.073l.061-3.376Zm-5.432-8.252a11,11,0,0,1,4.372-.924c2.683,0,4.524.989,5.152,2.735a7.257,7.257,0,0,1,.281,2.821l-.095,5.277V24.2c0,2.04.588,3.073,1.464,3.794l-2.731,1.82a4.107,4.107,0,0,1-1.7-1.78,7.578,7.578,0,0,1-.967.831,5.623,5.623,0,0,1-3.217.858c-3.559,0-5.5-1.779-5.5-4.91,0-3.679,2.59-5.4,7.682-5.4.311,0,.592,0,.935.028V18.8c0-1.751-.343-2.333-1.872-2.333a8.863,8.863,0,0,0-4.62,1.782L187.07,15.3a15.463,15.463,0,0,1,2.589-1.288" fill="#161615"/>
    <path id="Path_110" data-name="Path 110" d="M209.688,12.036V22.759c0,2.7.031,3.067.281,3.494a.96.96,0,0,0,.842.43,1.435,1.435,0,0,0,.469-.06L212,29.076a7.13,7.13,0,0,1-2.5.429,3.764,3.764,0,0,1-3.717-2.15c-.31-.8-.373-1.286-.373-3.529V13.63a39.746,39.746,0,0,0-.219-4.728l4.279-.948a22.956,22.956,0,0,1,.217,4.083" fill="#161615"/>
    <path id="Path_111" data-name="Path 111" d="M0,18.333A18.5,18.5,0,0,1,18.657,0a18.5,18.5,0,0,1,18.66,18.332,18.5,18.5,0,0,1-18.66,18.335A18.5,18.5,0,0,1,0,18.333" fill="#161615"/>
    <path id="Path_112" data-name="Path 112" d="M17.931,4.31a1.656,1.656,0,0,0,0-1c-.19-.376-.636-.69-.892-.188a3.691,3.691,0,0,0-.319.97,2.5,2.5,0,0,0,.031.879s.064.532.544.532.571-.346.636-1.192" fill="url(#linear-gradient)"/>
    <path id="Path_113" data-name="Path 113" d="M18.09,5.845c-1.227.87.158,1.1.158,1.1.382,0,.416.159-.191.533a1.448,1.448,0,0,0-.762,1.347c.031.44.22.689,1.145.468a1.645,1.645,0,0,0,1.18-1,2.849,2.849,0,0,1,.19-1.094c.191-.281.574,0,.574,0a2.992,2.992,0,0,0-.095.781c-.063,1.236,1.24.067,1.434-.218a3.728,3.728,0,0,1,1.466-1.064c.479-.124.955-.158.955-.847s-1.242-.532-1.561-.5a3.618,3.618,0,0,0-1.977.91c-.253.278-.669.248-.73,0a.545.545,0,0,1,.222-.627c.286-.252.349-.315.507-1.224s-.507-.875-.7-.78a2.541,2.541,0,0,0-.732,1.062,4.516,4.516,0,0,1-.194.69,2.682,2.682,0,0,0-.889.468" fill="url(#linear-gradient-2)"/>
    <path id="Path_114" data-name="Path 114" d="M25.451,3.5c-.491-.114-1.432-.095-1.72.345s-.141,1.072,1.021.939c1.335-.155,1.908-1,.7-1.284" fill="url(#linear-gradient-3)"/>
    <path id="Path_115" data-name="Path 115" d="M26.057,5.313s-.731.095-.892.375a.483.483,0,0,0,.032.6c.094.093.224.466-.16.407-.6-.095-1.722.563-.158.97s1.244.032,2.005.312,2.071-.781.671-1.252c0,0-.7.126-.446-.5s.319-1.188-1.052-.908" fill="url(#linear-gradient-4)"/>
    <path id="Path_116" data-name="Path 116" d="M29.88,7.911s-1.547-.694-.827.563c.287.506.7.66.954.345s.193-.561-.128-.908" fill="url(#linear-gradient-5)"/>
    <path id="Path_117" data-name="Path 117" d="M29.784,9.948s-1.773-.937-.765.594c.351.535.734,1,.987.69a.945.945,0,0,0-.222-1.283" fill="url(#linear-gradient-6)"/>
    <path id="Path_118" data-name="Path 118" d="M26.566,8.945c-.575-.035-.562.45-.51.535a2.279,2.279,0,0,0,.4.492c.256.25.526.509.845.1a.626.626,0,0,0-.162-.979c-.222-.124-.164-.124-.573-.15" fill="url(#linear-gradient-7)"/>
    <path id="Path_119" data-name="Path 119" d="M22.936,10.48s1.749-.815,1.942-1.345c.106-.29.2-.78-.7-.78-.51,0-1.214.683-1.214.683-.252.189-.7-.185-.445-.029a1.829,1.829,0,0,0-1.849.628c-.764.939.034,1.566.542,1.219s.892-.97,1.149-.627.414.347.575.252" fill="url(#linear-gradient-8)"/>
    <path id="Path_120" data-name="Path 120" d="M18.5,11.263a1.935,1.935,0,0,1,.8-.563c.692-.29.16-.718-.38-.815s-.828.723-.828.723c-.161,1,.255.844.413.655" fill="url(#linear-gradient-9)"/>
    <path id="Path_121" data-name="Path 121" d="M15.563,5.777a.405.405,0,0,1-.213-.542c.144-.4.1-.655-.5-.917s-1.316-.162-1.267.375-.191.352-.285.447-.672.729.263,1.058a3.791,3.791,0,0,1,1.814,1.318c.217.257,1,.585.909-.425a1.578,1.578,0,0,0-.718-1.314" fill="url(#linear-gradient-10)"/>
    <path id="Path_122" data-name="Path 122" d="M11.572,5.636c-.5-.12-.957-.024-.575.585a.782.782,0,0,0,.98.4.394.394,0,0,0,.07-.632,2.554,2.554,0,0,0-.475-.352" fill="url(#linear-gradient-11)"/>
    <path id="Path_123" data-name="Path 123" d="M9.739,8.445s.8-1.25-.725-.863A2.376,2.376,0,0,0,7.7,8.548c-.145.235-.507,1.783.571,1.079A6.959,6.959,0,0,0,9.739,8.445" fill="url(#linear-gradient-12)"/>
    <path id="Path_124" data-name="Path 124" d="M13.022,10.764c.8.624-.766,1.6-1.276,1.971s-.828.407-.861.027-.251-.278-.251-.278-.224.313-.482.125c-.655-.484.8-1.571,1.308-1.754a2.614,2.614,0,0,1,1.563-.092m.987-1.536c-.032.157-.19.41-.668.438a.609.609,0,0,1-.67-.565.733.733,0,0,1,.7-.436c.734.033.668.41.636.563m5.735,16.255s.1,4.177.1,4.509.38,1.314-.482,1.265-.474-.727-.474-1.2-.051-7.022.044-7.49.048-.892.574-.892a3.045,3.045,0,0,0,1.484-.471c.236-.189.621-.374.667.188s.433,6.576.718,7.515.672,2.254-.048,2.207-.86.19-1-2.442-.074-3.334-.6-3.71a.882.882,0,0,1-.285-.632c-.044-.47,0-1.271-.047-1.411s-.5-.588-.6.447a18.127,18.127,0,0,0-.052,2.116m-1.981,4.039c0,.8.169,1.887-.791,1.972-.811.069-.765-.5-.666-1.385.117-1.129.624-5.653.811-6.669.046-.261.073-1.012.553-1.059.806-.079.451.986.451.986-.095.47-.358,5.354-.358,6.155m-2.7-.657c-.236,1.127-.286,2.065-1.145,2.111s-.263-1.668-.263-1.668c-.048-.328,1.6-5.825,1.6-5.825.742-2.372.551.354.551.354a43.506,43.506,0,0,1-.744,5.028m.957-17.224s1.053-.438.638-1.16-.889-.5-1.245-.563-.539-.218-.351-.47.828-.77-.634-1.442c-.479-.217-.731.313-1.021-.374s-1.529-.282-2.007-.095S9.7,8.827,9.8,9.1c.194.5.28.567,1.081.409.482-.095,1.023-.029.575.408s-.478.375-.86.185-.8-.247-1.4.315-1.172.959-1.023,1.161c.2.248.416-.095.513.124s0,.315-.479.533-1.831,1.224-1.56,2.474c.125.595.832.222,1.113-.47.129-.313,1.308-1.19,1.147-.281a2.294,2.294,0,0,1-.573.72c-.382.313-1.307,1.22-.828,1.6s.668.095,1.084-.314,1.369-.906.892-.031c0,0-.892.44-.063,1.005a1.078,1.078,0,0,0,1.656-.66,4.523,4.523,0,0,1,1.275-1.818c.38-.153,1.531-.31.859.755s-.729,1.252-.443,1.469a.513.513,0,0,1,.126.629c-.03.125.174,1.864,1.052,1,.161-.157.924-1.189.861-.252s.032,1.756-.254,2.1a1.423,1.423,0,0,0-.512,1.314c.1.722.319-.064.031,1.377a33.817,33.817,0,0,1-.987,3.823c-.316.97-.828,3.162-.891,3.6s-.828,1.317.1,1.6.988.218,1.37.124.892.66,1.721.88,1.115.371,1.753.028a1.511,1.511,0,0,1,1.115-.06,1.99,1.99,0,0,0,1.56-.439c.351-.19.926.251,1.369.218A5.575,5.575,0,0,1,23,32.337c.539.1,1.305-.5,1.117-.939a40.434,40.434,0,0,1-1.532-8.362s-.03-1.628,0-1.847.256-.97.353.187a37.04,37.04,0,0,0,.7,5.167c.415,1.692,1.12,3.978,1.214,4.386s.445,1.281,1.3.623.258-.718-.063-1.409c0,0-1.943-4.007-2.165-6.169a21.727,21.727,0,0,1-.32-3.223c.093-.218,1-.692.38-1.817-.38-.685-.491-.692-.253-2.16.1-.594.1-1.285.861-.689s1.274-.281,1.274-.72,0-2.13-1.084-2.443-.891,1-.891,1.16.094,1-.7,1.064-1.66.283-1.85,1.41.668,1,.8.722.413-.939.478-.25a8.122,8.122,0,0,1,.064,1.341s.029,1.1-.353.315-.67.22-.8.657-.22,1.055-3.057,1.254c-.446.031-.509,0-.48-.407a14.826,14.826,0,0,1,.158-2.067c.13-.314.45-.655.641-.157s.507.5.6.376.319-.188.288.251.207,1.082.539.942c.513-.221.381-1.756.416-1.942a8.855,8.855,0,0,1,.382-2.726c.222-.534-.285-1.784-1.115-.347s-.414,1.975-.861,1.975-.542-.188-.445-.783-.083-1.514-1.34-.629a10.8,10.8,0,0,0-.987,1.035c-.095.188-.733.657-.636-.159s.255-1.533,1.018-1.627,2.008-.433,1.689-1.628-1.817-.813-2.2-.186-1.151,1.754-1.274.155c-.032-.406.989-.908,1.146-1.031m.7,8.579c-.254.908-1.115-.126-.892-.565s.066-1,.19-1.6c.168-.775,1.023-.22,1.086-.06a2.065,2.065,0,0,1,0,.623,5.3,5.3,0,0,1-.384,1.6" fill="url(#linear-gradient-13)"/>
    <path id="Path_125" data-name="Path 125" d="M23.569,11.341A.426.426,0,0,0,22.9,11.1s-.072.167-.6-.02-.691.445-.645.563.241.047.408,1.174.358.963,1.1.538.6-1.55.6-1.55.047.074-.194-.468" fill="url(#linear-gradient-14)"/>
    <path id="Path_126" data-name="Path 126" d="M29.38,17.261s-.027-.354-.312-.376-.527.258-.645.516-.152,1.127.455.865a.864.864,0,0,0,.5-1.005" fill="url(#linear-gradient-15)"/>
    <path id="Path_127" data-name="Path 127" d="M26.437,16.979c-.046.352.478.563.769.447s.524-.238.666-1.127-.223-1.091-.692-1.2c-.3-.071-.583.316-.583.77a9.028,9.028,0,0,1-.159,1.11" fill="url(#linear-gradient-16)"/>
    <path id="Path_128" data-name="Path 128" d="M27.18,11.2c-.121.28-.382-.164-.955-.212-.958-.078-.382.868-.215,1.1s.716.728,1.074.353.648-.022,1.292.731,1.005.373,1.124-.731-1.675-1.76-1.675-1.76c-.693-.071-.523.234-.644.516" fill="url(#linear-gradient-17)"/>
    <path id="Path_129" data-name="Path 129" d="M30.216,13.268c-.095.449.312,1.314.907,1.292s.575-.893.406-1.245a.933.933,0,0,0-.979-.634c-.406.045-.239.138-.334.587" fill="url(#linear-gradient-18)"/>
    <path id="Path_130" data-name="Path 130" d="M7.534,18.552c.266,1.207.838.47.955.069s.217-.37.383-.7a.7.7,0,0,0-.358-.986.675.675,0,0,0-.7.33,1.462,1.462,0,0,0-.285,1.29" fill="url(#linear-gradient-19)"/>
    <path id="Path_131" data-name="Path 131" d="M10.615,18.105c0,.789.789.4.979.19a1.842,1.842,0,0,0,.332-1.248.353.353,0,0,0-.665-.211c-.159.774-.646.987-.646,1.269" fill="url(#linear-gradient-20)"/>
    <rect id="Rectangle_7" data-name="Rectangle 7" width="164.711" height="0.417" transform="translate(47.226 34.711)" fill="#474849"/>
    <g id="Group_11" data-name="Group 11">
      <path id="Path_132" data-name="Path 132" d="M50.34,46.771a4.713,4.713,0,0,1-1.064.105h-2.05v-6.61h1.425a3.519,3.519,0,0,1,1.855.249,1.5,1.5,0,0,1,.908,1.382,1.48,1.48,0,0,1-1.22,1.458,1.673,1.673,0,0,1,1.5,1.708A1.7,1.7,0,0,1,50.34,46.771Zm-.6-5.66a2.31,2.31,0,0,0-.683-.067h-.918v2.014h1.064c.6,0,.8-.106,1-.365a1.137,1.137,0,0,0,.2-.643A.94.94,0,0,0,49.745,41.111Zm.2,2.772a3.164,3.164,0,0,0-.7-.057H48.153v2.3h1.328a1.111,1.111,0,0,0,1.181-1.17A1.047,1.047,0,0,0,49.94,43.884Z" fill="#474849"/>
      <path id="Path_133" data-name="Path 133" d="M57.906,46.877v-6.61h3.661l-.127.758H58.853V43.04h2.167v.777H58.863V46.08h2.812v.8Z" fill="#474849"/>
      <path id="Path_134" data-name="Path 134" d="M69.447,47a4.17,4.17,0,0,1-2.167-.585l.371-.71a3.351,3.351,0,0,0,1.816.547c.879,0,1.455-.441,1.455-1.151,0-.537-.361-.911-1.113-1.122l-.7-.2c-1.015-.288-1.591-.767-1.591-1.707a1.982,1.982,0,0,1,2.226-1.919,3.613,3.613,0,0,1,2.06.624l-.42.652a2.862,2.862,0,0,0-1.6-.518c-.752,0-1.22.384-1.22,1,0,.47.273.738,1,.95l.791.23a1.958,1.958,0,0,1,1.64,1.861C71.985,45.869,71.214,47,69.447,47Z" fill="#474849"/>
      <path id="Path_135" data-name="Path 135" d="M81.573,43.884a2.084,2.084,0,0,1-1.416.4H79.045v2.59h-.937v-6.61h1.8a2.774,2.774,0,0,1,1.6.307,1.808,1.808,0,0,1,.888,1.612A1.9,1.9,0,0,1,81.573,43.884Zm-.556-2.533a1.5,1.5,0,0,0-1.093-.326h-.879v2.513H80.1a1.112,1.112,0,0,0,.966-.374,1.308,1.308,0,0,0,.283-.873A1.219,1.219,0,0,0,81.017,41.351Z" fill="#474849"/>
      <path id="Path_136" data-name="Path 136" d="M90.584,46.982c-1.855,0-2.773-1.448-2.773-3.434,0-2.177,1.074-3.4,2.724-3.4,1.982,0,2.763,1.621,2.763,3.463C93.3,45.639,92.293,46.982,90.584,46.982Zm-.049-6.111c-1.191,0-1.669.873-1.669,2.571s.4,2.839,1.718,2.839c1.045,0,1.64-.739,1.64-2.581C92.225,41.907,91.8,40.871,90.536,40.871Z" fill="#474849"/>
      <path id="Path_137" data-name="Path 137" d="M99.391,46.877v-6.61h.957v6.61Zm3.349-6.61h1.181l-2.46,3.07,2.548,3.54h-1.22l-2.4-3.53Z" fill="#474849"/>
      <path id="Path_138" data-name="Path 138" d="M109.73,46.877v-6.61h3.661l-.127.758h-2.587V43.04h2.168v.777h-2.158V46.08H113.5v.8Z" fill="#474849"/>
      <path id="Path_139" data-name="Path 139" d="M126.337,46.877v-6.61h.957v6.61Z" fill="#474849"/>
      <path id="Path_140" data-name="Path 140" d="M137.446,46.877l-1.767-3.511a17.725,17.725,0,0,1-.82-1.813l-.059.01c.049.566.068,1.228.078,1.842l.039,3.472h-.947v-6.61h1.093l1.875,3.645A12.639,12.639,0,0,1,137.6,45.5l.059-.019c-.019-.192-.1-1.237-.1-1.966l-.019-3.242h.908v6.61Z" fill="#474849"/>
      <path id="Path_141" data-name="Path 141" d="M146.662,47a4.17,4.17,0,0,1-2.167-.585l.371-.71a3.351,3.351,0,0,0,1.816.547c.879,0,1.455-.441,1.455-1.151,0-.537-.361-.911-1.113-1.122l-.7-.2c-1.015-.288-1.591-.767-1.591-1.707a1.982,1.982,0,0,1,2.226-1.919,3.614,3.614,0,0,1,2.06.624l-.42.652a2.862,2.862,0,0,0-1.6-.518c-.752,0-1.22.384-1.22,1,0,.47.273.738,1,.95l.791.23a1.958,1.958,0,0,1,1.64,1.861C149.2,45.869,148.429,47,146.662,47Z" fill="#474849"/>
      <path id="Path_142" data-name="Path 142" d="M159.529,46.205a2.314,2.314,0,0,1-1.933.777,2.13,2.13,0,0,1-2.031-.921,1.942,1.942,0,0,1-.215-1.18V40.267h.947v4.269a2.388,2.388,0,0,0,.244,1.285,1.366,1.366,0,0,0,1.064.374,1.313,1.313,0,0,0,1.093-.432,1.8,1.8,0,0,0,.244-1.094v-4.4h.937V44.8C159.88,45.639,159.831,45.841,159.529,46.205Z" fill="#474849"/>
      <path id="Path_143" data-name="Path 143" d="M169.751,46.877c-.2-.374-.283-.528-.557-.978a8.965,8.965,0,0,0-1.162-1.65.758.758,0,0,0-.605-.3v2.926h-.937v-6.61h1.884a2.2,2.2,0,0,1,1.591.48,1.8,1.8,0,0,1,.6,1.362,1.694,1.694,0,0,1-1.8,1.813,3.111,3.111,0,0,1,.586.614c.137.182.342.47.566.815.293.451.839,1.314.976,1.525Zm-.8-5.727a2.291,2.291,0,0,0-.82-.125h-.7v2.3h.654a1.581,1.581,0,0,0,1.162-.317,1.208,1.208,0,0,0,.332-.892A1.006,1.006,0,0,0,168.951,41.15Z" fill="#474849"/>
      <path id="Path_144" data-name="Path 144" d="M180.442,46.877l-.6-1.87h-2.333l-.586,1.87h-.976l2.206-6.619h1.172l2.167,6.619Zm-1.709-5.7h-.059c-.1.374-.81,2.743-.927,3.06h1.894C179.524,43.931,178.821,41.562,178.733,41.178Z" fill="#474849"/>
      <path id="Path_145" data-name="Path 145" d="M190.663,46.877,188.9,43.366a17.73,17.73,0,0,1-.82-1.813l-.059.01c.049.566.068,1.228.078,1.842l.039,3.472h-.947v-6.61h1.093l1.874,3.645a12.651,12.651,0,0,1,.664,1.583l.059-.019c-.02-.192-.1-1.237-.1-1.966l-.019-3.242h.908v6.61Z" fill="#474849"/>
      <path id="Path_146" data-name="Path 146" d="M200.514,46.973a2.572,2.572,0,0,1-2.09-.988,3.715,3.715,0,0,1-.732-2.36,4.191,4.191,0,0,1,.439-1.966,2.716,2.716,0,0,1,2.421-1.516,2.659,2.659,0,0,1,1.65.518l-.459.6a1.92,1.92,0,0,0-1.191-.384,1.61,1.61,0,0,0-1.494.95,3.88,3.88,0,0,0-.322,1.775,3.717,3.717,0,0,0,.244,1.554,1.713,1.713,0,0,0,1.65,1.075,1.873,1.873,0,0,0,1.24-.413l.459.6A3.093,3.093,0,0,1,200.514,46.973Z" fill="#474849"/>
      <path id="Path_147" data-name="Path 147" d="M208.159,46.877v-6.61h3.661l-.127.758h-2.587V43.04h2.168v.777h-2.158V46.08h2.812v.8Z" fill="#474849"/>
    </g>
  </g>
</svg>
